<svg xmlns="http://www.w3.org/2000/svg" viewBox="0 0 1200 240" width="1200" height="240" preserveAspectRatio="none" role="img" aria-label="Generated SVG wave">
<path d="M 0 240 L 0 189.06277691035496 L 4 189.1818297337722 L 8 189.0889589523366 L 12 188.78402300408607 L 16 188.26835126173114 L 20 187.54475362803126 L 24 186.61751789835418 L 28 185.49239458330715 L 32 184.17656902083934 L 36 182.67862074979803 L 40 181.00847026360867 L 44 179.1773134114671 L 48 177.1975438630561 L 52 175.08266419916183 L 56 172.84718633251705 L 60 170.50652209861548 L 64 168.07686498308362 L 68 165.5750640685225 L 72 163.01849138774102 L 76 160.4249039603604 L 80 157.81230186443554 L 84 155.1987837527903 L 88 152.6024012642193 L 92 150.0410138018371 L 96 147.53214515420046 L 100 145.09284341921128 L 104 142.73954565632258 L 108 140.4879486396078 L 112 138.35288701346926 L 116 136.34822006508955 L 120 134.48672822435108 L 124 132.78002028428958 L 128 131.23845220484543 L 132 129.87105822156502 L 136 128.68549483097985 L 140 127.68799806778098 L 144 126.88335432784865 L 148 126.2748848279798 L 152 125.86444363011958 L 156 125.6524289973622 L 160 125.63780769323077 L 164 125.81815168697847 L 168 126.18968658797198 L 172 126.74735100357371 L 176 127.48486589911062 L 180 128.39481293708002 L 184 129.46872068704837 L 188 130.69715752884778 L 192 132.06983002050808 L 196 133.57568546944066 L 200 135.20301743098756 L 204 136.9395728625571 L 208 138.77265968387732 L 212 140.68925353383187 L 216 142.67610257103584 L 220 144.71982923764796 L 224 146.80702799253908 L 228 148.92435811927078 L 232 151.05863082461454 L 236 153.196889962624 L 240 155.32648584550375 L 244 157.43514173353103 L 248 159.51101272985682 L 252 161.54273693989407 L 256 163.5194788869463 L 260 165.4309653035527 L 264 167.26751353961004 L 268 169.02005294169024 L 272 170.68013966126006 L 276 172.239965441064 L 280 173.69236100730393 L 284 175.0307947592127 L 288 176.24936749620852 L 292 177.34280395532946 L 296 178.30644194766273 L 300 179.13621988186821 L 304 179.8286634458036 L 308 180.38087218413764 L 312 180.7905066614043 L 316 181.05577683720486 L 320 181.17543220444358 L 324 181.14875415406786 L 328 180.97555093245694 L 332 180.65615545223017 L 336 180.19142610583887 L 340 179.5827506159967 L 344 178.83205283999865 L 348 177.94180232853557 L 352 176.9150263259835 L 356 175.7553237905663 L 360 174.46688091140652 L 364 173.0544875073452 L 368 171.52355361143165 L 372 169.88012547688632 L 376 168.1309001866507 L 380 166.28323801064687 L 384 164.3451716336068 L 388 162.3254113725563 L 392 160.23334551721226 L 396 158.0790349588363 L 400 155.87320132333485 L 404 153.62720789214842 L 408 151.35303267896654 L 412 149.06323313048713 L 416 146.7709020339591 L 420 144.48961434151283 L 424 142.2333647594406 L 428 140.01649609758664 L 432 137.85361852760272 L 436 135.75952005663032 L 440 133.74906868248794 L 444 131.8371068550946 L 448 130.03833902404472 L 452 128.36721320136763 L 456 126.83779760900325 L 460 125.46365360995463 L 464 124.2577062381003 L 468 123.23211374211041 L 472 122.39813764185573 L 476 121.76601485940279 L 480 121.34483352970881 L 484 121.14241411729829 L 488 121.16519746368138 L 492 121.41814136554197 L 496 121.90462723561097 L 500 122.62637832682324 L 504 123.58339090636082 L 508 124.7738796503856 L 512 126.19423839386633 L 516 127.83901721444623 L 520 129.70091665660806 L 524 131.77079971458744 L 528 134.03772199192855 L 532 136.48898024484464 L 536 139.11017929840307 L 540 141.8853171019029 L 544 144.79688746565546 L 548 147.8259997987743 L 552 150.95251494960553 L 556 154.15519604012107 L 560 157.41187298592004 L 564 160.6996192072868 L 568 163.99493886670416 L 572 167.27396281681752 L 576 170.51265131230582 L 580 173.68700143142127 L 584 176.77325706976302 L 588 179.7481193114892 L 592 182.5889549526264 L 596 185.27400094802846 L 600 187.78256257810474 L 604 190.09520318354757 L 608 192.1939233954193 L 612 194.06232789321848 L 616 195.685777853682 L 620 197.05152740648663 L 624 198.1488425877813 L 628 198.9691014763757 L 632 199.50587440795903 L 636 199.75498338720345 L 640 199.71454005311693 L 644 199.38496179648877 L 648 198.76896587655676 L 652 197.8715416338855 L 656 196.69990114463923 L 660 195.26340890474145 L 664 193.5734913676944 L 668 191.64352738406535 L 672 189.48872080096123 L 676 187.12595667355907 L 680 184.57364271549886 L 684 181.85153776853497 L 688 178.98056920242237 L 692 175.9826412620607 L 696 172.88043645924574 L 700 169.69721216016472 L 704 166.4565945465634 L 708 163.18237212823044 L 712 159.89829095737872 L 716 156.62785364231513 L 720 153.39412417948913 L 724 150.21954052094077 L 728 147.12573667000342 L 732 144.13337595378744 L 736 141.26199695870312 L 740 138.52987343749047 L 744 135.95388930553352 L 748 133.54942964340674 L 752 131.33028841449718 L 756 129.3085933941008 L 760 127.49474859254995 L 764 125.89739424261765 L 768 124.52338421352046 L 772 123.37778051305709 L 776 122.46386434837666 L 780 121.78316303699037 L 784 121.33549189513306 L 788 121.11901008239555 L 792 121.13028925138377 L 796 121.36439374040118 L 800 121.8149709568867 L 804 122.4743505303297 L 808 123.33365076606333 L 812 124.38289090580682 L 816 125.61110769686702 L 820 127.00647478897064 L 824 128.55642351493861 L 828 130.24776366768964 L 832 132.06680295997398 L 836 133.99946394314148 L 840 136.0313972652879 L 844 138.14809026526774 L 848 140.3349700251227 L 852 142.57750013717788 L 856 144.86127058103386 L 860 147.17208024754598 L 864 149.49601178925062 L 868 151.81949861722876 L 872 154.1293840008314 L 876 156.4129723568888 L 880 158.65807293698825 L 884 160.8530362333214 L 888 162.9867835238565 L 892 165.0488300648098 L 896 167.029302511433 L 900 168.91895120613646 L 904 170.70915801532834 L 908 172.3919404227614 L 912 173.95995259759653 L 916 175.4064841500682 L 920 176.72545726708069 L 924 177.9114228850527 L 928 178.9595565088753 L 932 179.86565422519394 L 936 180.62612938680928 L 940 181.2380103644218 L 944 181.69893967397925 L 948 182.0071746943904 L 952 182.1615900932877 L 956 182.16168197985263 L 960 182.00757370545688 L 964 181.70002313700886 L 968 181.2404311363421 L 972 180.6308508935816 L 976 179.87399768488243 L 980 178.9732585568187 L 984 177.93270138239782 L 988 176.7570826883724 L 992 175.45185362119506 L 996 174.02316340034187 L 1000 172.4778596033175 L 1004 170.82348463667807 L 1008 169.06826777185478 L 1012 167.22111216315395 L 1016 165.29157631751784 L 1020 163.28984955069063 L 1024 161.22672104134443 L 1028 159.1135421822703 L 1032 156.96218202452923 L 1036 154.78497571491496 L 1040 152.5946659374938 L 1044 150.4043374845299 L 1048 148.22734519887018 L 1052 146.07723564688845 L 1056 143.96766299639864 L 1060 141.91229968557008 L 1064 139.92474257490633 L 1068 138.01841537292594 L 1072 136.20646821559146 L 1076 134.50167535816547 L 1080 132.91633200460123 L 1084 131.46215135255167 L 1088 130.15016297056778 L 1092 128.9906136472363 L 1096 127.99287185930507 L 1100 127.1653369969277 L 1104 126.5153544589549 L 1108 126.04913768988219 L 1112 125.77169817306525 L 1116 125.68678432280856 L 1120 125.79683013183171 L 1124 126.1029143315498 L 1128 126.60473071190592 L 1132 127.30057012667747 L 1136 128.18731458091935 L 1140 129.26044366130967 L 1144 130.51405342953646 L 1148 131.94088775548806 L 1152 133.5323819229085 L 1156 135.27871819738832 L 1160 137.16889290709216 L 1164 139.19079445243995 L 1168 141.33129153393674 L 1172 143.57633076925185 L 1176 145.9110427631154 L 1180 148.319855598088 L 1184 150.786614632054 L 1188 153.2947074204632 L 1192 155.82719252875742 L 1196 158.3669309636966 L 1200 160.89671893182168 L 1200 240 Z" fill="#679ad8" fill-opacity="1" stroke="none" />
<path d="M 0 240 L 0 198.05048990344858 L 4 197.4093774304785 L 8 196.61706006222758 L 12 195.67999289511022 L 16 194.60548480349058 L 20 193.4016129544082 L 24 192.07713437943426 L 28 190.64139608583469 L 32 189.10424514143955 L 36 187.4759400904368 L 40 185.76706495285825 L 44 183.98844693154393 L 48 182.15107880014665 L 52 180.2660467780079 L 56 178.34446451663484 L 60 176.3974136324398 L 64 174.43589102596437 L 68 172.47076303367447 L 72 170.5127262692222 L 76 168.572274831334 L 80 166.6596733894758 L 84 164.7849355100961 L 88 162.95780645906447 L 92 161.18774961290973 L 96 159.4839355350347 L 100 157.85523272504093 L 104 156.3101990307453 L 108 154.85707272382837 L 112 153.50376228102252 L 116 152.25783398232156 L 120 151.12649653418248 L 124 150.1165820467627 L 128 149.23452283695605 L 132 148.4863236899042 L 136 147.87752938685196 L 140 147.4131874924184 L 144 147.09780658502623 L 148 146.93531030567743 L 152 146.92898778772096 L 156 147.0814412090353 L 160 147.39453137359834 L 164 147.8693223774711 L 168 148.50602654086785 L 172 149.30395088977227 L 176 150.26144654456837 L 180 151.37586241707484 L 184 152.6435046295516 L 188 154.05960304873747 L 192 155.61828627455526 L 196 157.31256633730052 L 200 159.1343342401545 L 204 161.0743673376777 L 208 163.1223493681644 L 212 165.26690376159257 L 216 167.49564062916207 L 220 169.79521760930552 L 224 172.15141450318947 L 228 174.54922138497733 L 232 176.9729396235507 L 236 179.40629500808436 L 240 181.83256193490797 L 244 184.23469739235082 L 248 186.59548327839002 L 252 188.8976754071639 L 256 191.12415740857574 L 260 193.2580976035506 L 264 195.28310684867083 L 268 197.18339528987468 L 272 198.94392594691968 L 276 200.55056306891055 L 280 201.99021325614356 L 284 203.25095743384986 L 288 204.3221718874372 L 292 205.19463672414966 L 296 205.86063030967813 L 300 206.31400843657943 L 304 206.5502672103321 L 308 206.56658888400682 L 312 206.36187012908837 L 316 205.93673249298783 L 320 205.29351505816595 L 324 204.43624957851162 L 328 203.37061862075953 L 332 202.1038974776037 L 336 200.64488084040028 L 340 199.00379541901407 L 344 197.1921998710008 L 348 195.22287354905765 L 352 193.1096956922633 L 356 190.86751677148987 L 360 188.51202375160503 L 364 186.05960105251748 L 368 183.5271889782692 L 372 180.93214133943837 L 376 178.29208392094074 L 380 175.62477534733327 L 384 172.94797177391882 L 388 170.27929668774243 L 392 167.636116941777 L 396 165.035425972302 L 400 162.49373496795914 L 404 160.02697257358645 L 408 157.65039352702144 L 412 155.37849644686094 L 416 153.2249508176602 L 420 151.2025330599673 L 424 149.32307142921593 L 428 147.59739936269813 L 432 146.03531678992573 L 436 144.64555884041226 L 440 143.4357713254041 L 444 142.41249233686509 L 448 141.58113929794413 L 452 140.9460008134722 L 456 140.51023270538883 L 460 140.27585767446618 L 464 140.24376810385357 L 468 140.41373160893127 L 472 140.78439903849463 L 476 141.35331474085936 L 480 142.11692902135633 L 484 143.07061283104468 L 488 144.2086748364878 L 492 145.52438112336603 L 496 147.00997787900621 L 500 148.65671747732017 L 504 150.45488845126394 L 508 152.39384988029963 L 512 154.46207074150078 L 516 156.64717477149895 L 520 158.93599136161643 L 524 161.31461296009303 L 528 163.76845938374322 L 532 166.28234934775446 L 536 168.84057940834742 L 540 171.42701038091644 L 544 174.0251611488445 L 548 176.61830961867568 L 552 179.18960040936676 L 556 181.7221586908617 L 560 184.19920941438883 L 564 186.6042010079388 L 568 188.9209324496243 L 572 191.133682483251 L 576 193.22733960845534 L 580 195.18753136591914 L 584 197.0007513498086 L 588 198.65448231760635 L 592 200.13731373426805 L 596 201.43905208491836 L 600 202.5508223192224 L 604 203.46515885157967 L 608 204.1760846341326 L 612 204.67917694330544 L 616 204.97161867354455 L 620 205.0522341118014 L 624 204.92150837015677 L 628 204.5815898783245 L 632 204.03627557860312 L 636 203.29097871876013 L 640 202.35267939860353 L 644 201.22985828867178 L 648 199.93241419948848 L 652 198.47156643210437 L 656 196.8597430802138 L 660 195.11045667621593 L 664 193.23816877374128 L 668 191.25814523333347 L 672 189.18630412262087 L 676 187.03905825446634 L 680 184.833154463917 L 684 182.58551176567028 L 688 180.31306053732916 L 692 178.03258483980778 L 696 175.76056991549171 L 700 173.51305679853797 L 704 171.305505832114 L 708 169.15267071721075 L 712 167.0684845203237 L 716 165.0659588467358 L 720 163.15709714678007 L 724 161.352822869105 L 728 159.66292291268255 L 732 158.0960065633165 L 736 156.65947983601734 L 740 155.35953488702722 L 744 154.20115391356575 L 748 153.18812673028924 L 752 152.3230810034146 L 756 151.60752394037203 L 760 151.04189407808363 L 764 150.62562168926002 L 768 150.3571962355262 L 772 150.2342392400653 L 776 150.25358093139474 L 780 150.41133902370106 L 784 150.70299804693596 L 788 151.12348771998126 L 792 151.66725897029937 L 796 152.3283563406432 L 800 153.10048568409266 L 804 153.97707622891932 L 808 154.95133629017238 L 812 156.01630211075621 L 816 157.16487952627563 L 820 158.38987836012785 L 824 159.6840396633241 L 828 161.04005611257568 L 832 162.4505860657778 L 836 163.9082619420162 L 840 165.40569373988967 L 844 166.93546863010044 L 848 168.49014765330014 L 852 170.06226062014514 L 856 171.64430034613 L 860 173.2287173584742 L 864 174.80791618628965 L 868 176.3742542893269 L 872 177.9200445963411 L 876 179.43756251374398 L 880 180.91905813151797 L 884 182.3567741996972 L 888 183.74297027884856 L 892 185.0699532860657 L 896 186.33011446842602 L 900 187.5159726432394 L 904 188.62022335336525 L 908 189.63579340098835 L 912 190.55590004895123 L 916 191.3741140192289 L 920 192.08442527723238 L 924 192.68131047173603 L 928 193.15980080623137 L 932 193.51554905071987 L 936 193.74489436505414 L 940 193.84492359693664 L 944 193.81352773991551 L 948 193.64945228881695 L 952 193.35234031097656 L 956 192.92276715967856 L 960 192.36226588905853 L 964 191.67334258449668 L 968 190.85948099584596 L 972 189.92513604891073 L 976 188.8757160092968 L 980 187.71755327773568 L 984 186.45786400275398 L 988 185.10469690059438 L 992 183.66687186914274 L 996 182.15390916800396 L 1000 180.57595010678696 L 1004 178.94367033446076 L 1008 177.26818695112578 L 1012 175.56096076701758 L 1016 173.8336951099066 L 1020 172.09823262978588 L 1024 170.36645156800367 L 1028 168.65016294662834 L 1032 166.96101009332483 L 1036 165.3103718485321 L 1040 163.7092707070399 L 1044 162.168287027538 L 1048 160.69748030424594 L 1052 159.30631833767637 L 1056 158.00361497067567 L 1060 156.7974768751345 L 1064 155.6952596883998 L 1068 154.703533610749 L 1072 153.82805839063107 L 1076 153.07376744694022 L 1080 152.44476071137146 L 1084 151.94430562262835 L 1088 151.57484557123652 L 1092 151.3380149818372 L 1096 151.23466013143548 L 1100 151.26486473893107 L 1104 151.42797932450847 L 1108 151.72265332761793 L 1112 152.14686898918396 L 1116 152.69797604653567 L 1120 153.37272635692796 L 1124 154.1673076553901 L 1128 155.07737576242135 L 1132 156.09808468369337 L 1136 157.2241141839447 L 1140 158.4496945668628 L 1144 159.76862854790565 L 1148 161.17431026353657 L 1152 162.65974161401397 L 1156 164.21754628352716 L 1160 165.83998191710214 L 1164 167.51895105457095 L 1168 169.2460115246114 L 1172 171.01238708344863 L 1176 172.80897914081586 L 1180 174.6263804482921 L 1184 176.4548916308979 L 1188 178.28454142120214 L 1192 180.1051114062124 L 1196 181.90616602170047 L 1200 183.6770884277263 L 1200 240 Z" fill="#4e8ad1" fill-opacity="1" stroke="none" />
<path d="M 0 240 L 0 209.82235396660676 L 4 208.76665372144168 L 8 207.59796584238362 L 12 206.3243791512069 L 16 204.95393500222352 L 20 203.49457505667928 L 24 201.95412990292425 L 28 200.34034620642012 L 32 198.66094800985368 L 36 196.92372597416062 L 40 195.13664684190903 L 44 193.3079742859966 L 48 191.44639163147028 L 52 189.56111673834263 L 56 187.66199961832757 L 60 185.75959411569465 L 64 183.8651961772529 L 68 181.9908428137611 L 72 180.1492677419103 L 76 178.35381180498553 L 80 176.61828850338992 L 84 174.9568072193191 L 88 173.38355888758713 L 92 171.91257084498687 L 96 170.5574392898174 L 100 169.33104911997958 L 104 168.24529182716557 L 108 167.31079256020476 L 112 166.5366574079913 L 116 165.93025138959143 L 120 165.49701659682196 L 124 165.24033845540532 L 128 165.16146621737778 L 132 165.2594916496858 L 136 165.53138753552795 L 140 165.9721051592483 L 144 166.57472751069736 L 148 167.33067262930962 L 152 168.2299394153224 L 156 169.2613864598002 L 160 170.4130330669846 L 164 171.6723707251993 L 168 173.02667286913797 L 172 174.46329088767197 L 176 175.96992496496628 L 180 177.53485947312666 L 184 179.1471542141538 L 188 180.79678476992345 L 192 182.47472747640563 L 196 184.17298699415824 L 200 185.88456699398472 L 204 187.60338700291527 L 208 189.32415085033458 L 212 191.04217431165293 L 216 192.75318137210414 L 220 194.45307994520857 L 224 196.13772881633926 L 228 197.80270799969233 L 232 199.4431045775213 L 236 201.05332543806765 L 240 202.62694717095073 L 244 204.15661176581713 L 248 205.63397476176266 L 252 207.04971019833908 L 256 208.39357422385427 L 260 209.6545266318866 L 264 210.82090703507612 L 268 211.88065995788722 L 272 212.82160094273715 L 276 213.6317139116137 L 280 214.29946858822748 L 284 214.81414582571568 L 288 215.1661582427932 L 292 215.347353665121 L 296 215.35128949310615 L 300 215.17346724371643 L 304 214.81151809163887 L 308 214.26533219408762 L 312 213.53712683717387 L 316 212.63145089083213 L 320 211.5551255965583 L 324 210.3171242270184 L 328 208.9283955398603 L 332 207.4016380971444 L 336 205.7510343449887 L 340 203.99195476855962 L 344 202.14064339704623 L 348 200.2138963941948 L 352 198.2287454172732 L 356 196.20215686893494 L 360 194.1507571328563 L 364 192.09059242685223 L 368 190.03693009671292 L 372 188.0041060959778 L 376 186.00542114849725 L 380 184.05308577621858 L 384 182.15821210076922 L 388 180.33084819817853 L 392 178.58004889831372 L 396 176.9139753595257 L 400 175.3400145843753 L 404 173.8649093253042 L 408 172.49488859003068 L 412 171.23578920337218 L 416 170.09315960067485 L 420 169.07233818178315 L 424 168.1785000870855 L 428 167.4166680946593 L 432 166.79168539181916 L 436 166.30815014725624 L 440 165.97031399768156 L 444 165.78194866085397 L 448 165.7461867944714 L 452 165.8653448456069 L 456 166.14073689899521 L 460 166.57248937182212 L 464 167.15936677443952 L 468 167.89861863876777 L 472 168.78585710969665 L 476 169.81497362274547 L 480 170.97810159835663 L 484 172.2656302338484 L 488 173.66627234937908 L 492 175.16718693856023 L 496 176.75415469080696 L 500 178.4118023986219 L 504 180.12386994571858 L 508 181.8735115927444 L 512 183.64362162792085 L 516 185.41717320757544 L 520 187.1775584359752 L 524 188.90891746430677 L 528 190.59644464197837 L 532 192.2266605233653 L 536 193.78763979040792 L 540 195.2691868450352 L 544 196.6629528845613 L 548 197.96249061078151 L 552 199.16324523955134 L 556 200.26248306390318 L 560 201.25916136841 L 564 202.15374588509692 L 568 202.9479841175343 L 572 203.64464464653236 L 576 204.24723388982133 L 580 204.75970265950437 L 584 205.18615520635313 L 588 205.53057324355234 L 592 205.7965667123027 L 596 205.98716181909867 L 600 206.10463519280862 L 604 206.1504009518266 L 608 206.1249551268978 L 612 206.02787935560062 L 616 205.85790315977732 L 620 205.613021550494 L 624 205.2906622876525 L 628 204.8878949577375 L 632 204.4016722166567 L 636 203.82909215313592 L 640 203.1676698207912 L 644 202.415605601594 L 648 201.57203821476895 L 652 200.63727086443 L 656 199.61296019454832 L 660 198.50225933756283 L 664 197.3099083302575 L 668 196.04226743864373 L 672 194.7072913817134 L 676 193.31444496380942 L 680 191.87456310606012 L 684 190.39966060019862 L 688 188.90269899157005 L 692 187.39731974223915 L 696 185.89755415540503 L 700 184.41752140316956 L 704 182.97112635664809 L 708 181.57176875868578 L 712 180.23207461635874 L 716 178.9636595568164 L 720 177.77693234055266 L 724 176.68094483393003 L 728 175.6832925957629 L 732 174.79006792999886 L 736 174.00586490349977 L 740 173.33383353177362 L 744 172.77577820023248 L 748 172.33229351028533 L 752 172.0029292022609 L 756 171.78637467877817 L 760 171.6806529817394 L 764 171.68331389142742 L 768 171.79161612269226 L 772 172.00268937376867 L 776 172.31366819899176 L 780 172.72179126874317 L 784 173.22446147231727 L 788 173.8192644222696 L 792 174.50394513280978 L 796 175.2763448654795 L 800 176.13430225798552 L 804 177.07552477641448 L 808 178.09743816602582 L 812 179.19702284355137 L 816 180.37064701343095 L 820 181.61390666034973 L 824 182.92148245106165 L 828 184.2870229725668 L 832 185.70306266647907 L 836 187.16098133746044 L 840 188.65101028276982 L 844 190.16228799248702 L 848 191.68296610067392 L 852 193.2003639298607 L 856 194.7011676717326 L 860 196.1716680915602 L 864 197.59802873265508 L 868 198.96657501935363 L 872 200.26409348759586 L 876 201.47812966792358 L 880 202.5972729428959 L 884 203.61141701336555 L 888 204.51198542656675 L 892 205.2921129115617 L 896 205.9467749808921 L 900 206.4728603187846 L 904 206.8691827975091 L 908 207.1364324439903 L 912 207.2770672103861 L 916 207.29514987412512 L 920 207.19613669597445 L 924 206.9866264971856 L 928 206.6740804882264 L 932 206.26652441718406 L 936 205.7722453496644 L 940 205.1994956094 L 944 204.55621608832234 L 948 203.8497902886459 L 952 203.08683912275043 L 956 202.2730647261258 L 960 201.4131494102695 L 964 200.51071348793232 L 968 199.5683331459868 L 972 198.58761693219552 L 976 197.56933687438408 L 980 196.5136078744701 L 984 195.42010691848608 L 988 194.28832190816567 L 992 193.1178186248411 L 996 191.90851353802026 L 1000 190.66093990303065 L 1004 189.3764948652859 L 1008 188.0576560901275 L 1012 186.7081577308671 L 1016 185.33311727619144 L 1020 183.93910690524083 L 1024 182.53416533270322 L 1028 181.12774864407453 L 1032 179.730621192905 L 1036 178.3546901455392 L 1040 177.01278960571724 L 1044 175.71842233042025 L 1048 174.4854687707327 L 1052 173.3278744646362 L 1056 172.25932761920848 L 1060 171.29293901594008 L 1064 170.44093614598174 L 1068 169.71438274647699 L 1072 169.1229337015841 L 1076 168.6746336499383 L 1080 168.37576567980324 L 1084 168.2307542842742 L 1088 168.2421243923758 L 1092 168.41051589443 L 1096 168.7347507494448 L 1100 169.21194760253906 L 1104 169.83767694720052 L 1108 170.60614832340485 L 1112 171.51041991483459 L 1116 172.5426202438273 L 1120 173.69417148703366 L 1124 174.95600425136823 L 1128 176.3187544393972 L 1132 177.7729340549186 L 1136 179.30906939254052 L 1140 180.91780194206225 L 1144 182.58994942862608 L 1148 184.31652660302066 L 1152 186.0887275887383 L 1156 187.89787367923336 L 1160 189.73533236114346 L 1164 191.5924149274468 L 1168 193.4602612627516 L 1172 195.32972117242855 L 1176 197.19124194927687 L 1180 199.03477170869493 L 1184 200.8496873812574 L 1188 202.62475515781568 L 1192 204.34812968544807 L 1196 206.00739648039615 L 1200 207.58965993999252 L 1200 240 Z" fill="#367acb" fill-opacity="1" stroke="none" />
<path d="M 0 240 L 0 217.7426204735147 L 4 216.71926754426605 L 8 215.6262215571678 L 12 214.4707248491191 L 16 213.2609959058587 L 20 212.00614381962922 L 24 210.71605061593306 L 28 209.4012249414002 L 32 208.07263186234636 L 36 206.74150457783776 L 40 205.41914465535794 L 44 204.11671791592929 L 48 202.8450533058294 L 52 201.61445198456133 L 56 200.4345134382118 L 60 199.3139847123175 L 64 198.26063788040904 L 68 197.28117966667332 L 72 196.38119577652938 L 76 195.565131017581 L 80 194.83630478033393 L 84 194.1969599600443 L 88 193.64834200379187 L 92 193.19080352205148 L 96 192.82392886665016 L 100 192.5466722928776 L 104 192.3575028273135 L 108 192.25454877658413 L 112 192.23573494398678 L 116 192.29890606488956 L 120 192.4419307083253 L 124 192.66278088859005 L 128 192.9595838426688 L 132 193.3306438030652 L 136 193.77443306993536 L 140 194.2895531955471 L 144 194.87466857052218 L 148 195.5284160788348 L 152 196.24929570507123 L 156 197.03554797785287 L 160 197.8850248717788 L 164 198.79506123234896 L 168 199.76235391259632 L 172 200.78285560901784 L 176 201.85168986456395 L 180 202.9630928886699 L 184 204.11038676250806 L 188 205.2859872974564 L 192 206.4814483516347 L 196 207.68754284606263 L 200 208.894379126027 L 204 210.09154975384232 L 208 211.2683083643233 L 212 212.41376892773593 L 216 213.5171207035252 L 220 214.5678513790413 L 224 215.55597040655485 L 228 216.47222440169574 L 232 217.3082966555571 L 236 218.05698333502139 L 240 218.7123397810246 L 244 219.2697914286379 L 248 219.72620522014145 L 252 220.07991890673395 L 256 220.33072727250493 L 260 220.47982599717022 L 264 220.52971553117573 L 268 220.4840689184538 L 272 220.3475689027007 L 276 220.12572083367772 L 280 219.8246488011902 L 284 219.45088302800326 L 288 219.0111468240239 L 292 218.51215133178175 L 296 217.96040588135037 L 300 217.36205103956465 L 304 216.72272041554868 L 308 216.04743601625236 L 312 215.34054048633573 L 316 214.60566797874455 L 320 213.8457537533984 L 324 213.06308096163676 L 328 212.25936151287826 L 332 211.43584650315125 L 336 210.59346047211136 L 340 209.73295279626043 L 344 208.85505886057607 L 348 207.9606633051314 L 352 207.05095763013736 L 356 206.1275847604033 L 360 205.19276380248064 L 364 204.24938914523077 L 368 203.3010992155791 L 372 202.35231155382593 L 376 201.40822235711303 L 380 200.4747701901659 L 384 199.55856511143125 L 388 198.66678594285406 L 392 197.80704975886385 L 396 196.98725882692258 L 400 196.21543114918916 L 404 195.4995213942446 L 408 194.84723934361548 L 412 194.26587299777358 L 416 193.762123192141 L 420 193.34195598104 L 424 193.01047818529187 L 428 192.77184040791164 L 432 192.62917055268176 L 436 192.58453949065023 L 440 192.6389590732265 L 444 192.7924112532595 L 448 193.04390571233586 L 452 193.39156216504628 L 456 193.832712474362 L 460 194.3640169130223 L 464 194.98158837963842 L 468 195.68111814834256 L 472 196.45799680710172 L 476 197.3074244182379 L 480 198.2245045975153 L 484 199.2043181247059 L 488 200.24197282660344 L 492 201.33262776108924 L 496 202.47149111873532 L 500 203.653792682474 L 504 204.87473308006062 L 508 206.12941336343403 L 512 207.41274959258956 L 516 208.7193780348411 L 520 210.04355726809592 L 524 211.3790738649054 L 528 212.71915841122402 L 532 214.0564183724035 L 536 215.38279376552046 L 540 216.6895407521819 L 544 217.96724716310678 L 548 219.20588265038754 L 552 220.39488469054618 L 556 221.5232800939094 L 560 222.5798400807809 L 564 223.55326543157517 L 568 224.43239677452195 L 572 225.2064438046671 L 576 225.86522618867136 L 580 226.3994181489262 L 584 226.80078827381524 L 588 227.0624259914754 L 592 227.17894638088427 L 596 227.1466655706376 L 600 226.9637398720507 L 604 226.63026297527475 L 608 226.14831695878482 L 612 225.52197446739834 L 616 224.7572511375218 L 620 223.86200912100017 L 624 222.84581430889284 L 628 221.71975151264758 L 632 220.49620335521658 L 636 219.18859989803175 L 640 217.81114703004008 L 644 216.37854233219136 L 648 214.90568747796843 L 652 213.40740622504626 L 656 211.89817669699963 L 660 210.39188596378733 L 664 208.9016139360422 L 668 207.43945233404594 L 672 206.01636303139261 L 676 204.6420784678186 L 680 203.3250451432502 L 684 202.07240951630328 L 688 200.89004400551366 L 692 199.78260929747157 L 696 198.75364786365208 L 700 197.80570252926302 L 704 196.94045316416032 L 708 196.1588641065081 L 712 195.46133479930504 L 716 194.84784631875732 L 720 194.31809698807 L 724 193.8716210732895 L 728 193.50788560976608 L 732 193.226361658509 L 736 193.02656768279718 L 740 192.90808420284236 L 744 192.87054036321814 L 748 192.91357446743717 L 752 193.03677183283108 L 756 193.23958443898061 L 760 193.52123773497462 L 764 193.88063059590718 L 768 194.31623475064615 L 772 194.826000027772 L 776 195.4072714853471 L 780 196.05672391732153 L 784 196.77031839253382 L 788 197.54328442093885 L 792 198.37013010548347 L 796 199.2446812844081 L 800 200.16014926040666 L 804 201.10922531522027 L 808 202.08419888560226 L 812 203.0770950905576 L 816 204.07982630559712 L 820 205.0843517241492 L 824 206.08283836524257 L 828 207.06781680380712 L 832 208.0323250257377 L 836 208.97003424064198 L 840 209.87535120360604 L 844 210.74349257298937 L 848 211.5705280221241 L 852 212.35339017687662 L 856 213.08985090876726 L 860 213.77846501017552 L 864 214.41848374737884 L 868 215.00974216287554 L 872 215.55252521843167 L 876 216.047418878857 L 880 216.4951529869062 L 884 216.89644323623614 L 888 217.2518396890308 L 892 217.56158909849324 L 896 217.82551778888376 L 900 218.0429410362187 L 904 218.21260381350868 L 908 218.33265645984196 L 912 218.40066735712725 L 916 218.41367311408058 L 920 218.36826513135742 L 924 218.2607098240686 L 928 218.08709827696694 L 932 217.84351976825576 L 936 217.5262524785784 L 940 217.13196385148498 L 944 216.65791252845824 L 948 216.1021435703727 L 952 215.46366880896755 L 956 214.74262464287563 L 960 213.9404003848577 L 964 213.05973134834366 L 968 212.10475218800804 L 972 211.08100752624722 L 976 209.99541854225387 L 980 208.85620590458007 L 984 207.67277112076007 L 988 206.45553998829595 L 992 205.21577329312987 L 996 203.96535115400522 L 1000 202.7165384021402 L 1004 201.48173907480856 L 1008 200.2732484609991 L 1012 199.10301115358718 L 1016 197.9823932362451 L 1020 196.9219760800392 L 1024 195.93137827351165 L 1028 195.019111002799 L 1032 194.19247078748867 L 1036 193.45747192440075 L 1040 192.8188193620523 L 1044 192.27992109287305 L 1048 191.8429375778655 L 1052 191.50886427580997 L 1056 191.27764209683522 L 1060 191.1482895901865 L 1064 191.1190499495438 L 1068 191.18754550498537 L 1072 191.35093228365884 L 1076 191.60604746210834 L 1080 191.94954308842492 L 1084 192.37800029470648 L 1088 192.88801931009974 L 1092 193.476281871685 L 1096 194.13958405599337 L 1100 194.8748390535481 L 1104 195.6790509150736 L 1108 196.54926174349126 L 1112 197.48247612606067 L 1116 198.4755677373492 L 1120 199.52517394579007 L 1124 200.62758488462953 L 1128 201.77863377453735 L 1132 202.97359529599 L 1136 204.20709850469885 L 1140 205.47306017683636 L 1144 206.76464358998246 L 1148 208.07424663008732 L 1152 209.39352181424866 L 1156 210.7134293918171 L 1160 212.02432319597696 L 1164 213.31606743098908 L 1168 214.57818116307007 L 1172 215.80000599868043 L 1176 216.97089134020285 L 1180 218.08039075460292 L 1184 219.11846241410754 L 1188 220.07566629538397 L 1192 220.94335086790264 L 1196 221.71382236188924 L 1200 222.38049036634297 L 1200 240 Z" fill="#2e6bb4" fill-opacity="1" stroke="none" />
<path d="M 0 240 L 0 227.83820331908754 L 4 227.0935324401801 L 8 226.31844016359955 L 12 225.51852721044534 L 16 224.69989527963114 L 20 223.86907784836276 L 24 223.03295449235983 L 28 222.1986508257794 L 32 221.3734268102653 L 36 220.56455673098196 L 40 219.7792045600619 L 44 219.02429870490482 L 48 218.30641025651605 L 52 217.63163880451708 L 56 217.00550967051964 L 60 216.43288603719776 L 64 215.91789893036554 L 68 215.4638973656773 L 72 215.07342022567067 L 76 214.74819061664462 L 80 214.48913260136516 L 84 214.29640934770944 L 88 214.1694809103424 L 92 214.10717910652542 L 96 214.10779628978798 L 100 214.1691842941923 L 104 214.2888594399672 L 108 214.46410927503703 L 112 214.6920966863283 L 116 214.9699571524015 L 120 215.29488522028097 L 124 215.66420676250263 L 128 216.07543418678875 L 132 216.52630250581558 L 136 217.01478499867545 L 140 217.53908807545858 L 144 218.0976258560466 L 148 218.68897585690587 L 152 219.3118180091089 L 156 219.9648599727455 L 160 220.6467523365081 L 164 221.35599777045917 L 168 222.09085851454293 L 172 222.84926672165437 L 176 223.62874212563963 L 180 224.4263212725702 L 184 225.23850214659709 L 188 226.0612074553632 L 192 226.88976913654795 L 196 227.7189358344613 L 200 228.54290420597957 L 204 229.35537398397327 L 208 230.1496257908686 L 212 230.91861979246818 L 216 231.65511244865536 L 220 232.3517878863624 L 224 233.00139982028378 L 228 233.59691950204487 L 232 234.1316849063829 L 236 234.5995462738857 L 240 234.99500322709562 L 244 235.31332895595872 L 248 235.5506774180302 L 252 235.70417010009402 L 256 235.7719596164569 L 260 235.75326824569615 L 264 235.64840039886565 L 268 235.45872893250421 L 272 235.18665613272938 L 276 234.8355510663126 L 280 234.40966578703194 L 284 233.91403357034082 L 288 233.35435290067662 L 292 232.736861333456 L 296 232.06820358432702 L 300 231.35529825492534 L 304 230.6052074877742 L 308 229.8250135607601 L 312 229.02170599824515 L 316 228.20208221186314 L 320 227.37266401509564 L 324 226.53963161158973 L 328 225.70877587039723 L 332 224.88546890578922 L 336 224.0746522088694 L 340 223.28084086521852 L 344 222.508141766725 L 348 221.7602832119815 L 352 221.04065290840234 L 356 220.35234115481313 L 360 219.6981859034272 L 364 219.08081647577836 L 368 218.50269293243431 L 372 217.9661384587796 L 376 217.47336261050157 L 380 217.02647383921374 L 384 216.62748036343274 L 388 216.27827913257997 L 392 215.9806333200014 L 396 215.73613944329335 L 400 215.546185815881 L 404 215.41190455486824 L 408 215.33411978255833 L 412 215.31329494355566 L 416 215.34948230257322 L 420 215.44227768290017 L 424 215.59078335150386 L 428 215.7935816602032 L 432 216.0487216259195 L 436 216.3537200952293 L 440 216.7055785129127 L 444 217.1008156285764 L 448 217.5355157602276 L 452 218.00539152092622 L 456 218.50585923649987 L 460 219.0321246696536 L 464 219.57927614689993 L 468 220.1423817839411 L 472 220.7165872418725 L 476 221.2972103344156 L 480 221.8798288524403 L 484 222.46035817659748 L 488 223.03511560536458 L 492 223.60086882098355 L 496 224.15486653028134 L 500 224.6948500265155 L 504 225.2190451931472 L 508 225.7261352786731 L 512 226.21521557941603 L 516 226.68573194022179 L 520 227.13740568816797 L 524 227.57014822102235 L 528 227.98396895348114 L 532 228.37888065836196 L 536 228.75480641105912 L 540 229.11149234449505 L 544 229.44843024642404 L 548 229.76479368640443 L 552 230.05939085827654 L 556 230.33063668440005 L 560 230.5765459749393 L 564 230.79474859874344 L 568 230.98252673516004 L 572 231.1368733740908 L 576 231.25457035127354 L 580 231.33228338306273 L 584 231.3666708336847 L 588 231.35450233835826 L 592 231.29278294333034 L 596 231.17887812847195 L 600 231.01063496263765 L 604 230.78649471231398 L 608 230.50559247847445 L 612 230.1678398658895 L 616 229.7739872771762 L 620 229.3256631479392 L 624 228.82538827123432 L 628 228.2765642666599 L 632 227.6834361959596 L 636 227.05103027577414 L 640 226.38506855167995 L 644 225.6918632398699 L 648 224.97819418062204 L 652 224.25117345213448 L 656 223.51810164084912 L 660 222.78632053785773 L 664 222.06306712022646 L 668 221.3553335783751 L 672 220.66973787081866 L 676 220.0124088377457 L 680 219.38888930399898 L 684 218.8040598749704 L 688 218.26208530562278 L 692 217.76638443693344 L 696 217.31962378148216 L 700 216.92373393749824 L 704 216.5799471546024 L 708 216.28885359875395 L 712 216.05047319904688 L 716 215.8643394307349 L 720 215.72959101716043 L 724 215.64506733148613 L 728 215.6094032535626 L 732 215.6211193868754 L 736 215.67870385704762 L 740 215.78068238173927 L 744 215.92567390072725 L 748 216.11242975797896 L 752 216.33985520405133 L 756 216.6070128037646 L 760 216.9131081560444 L 764 217.25745912540216 L 768 217.6394505145816 L 772 218.05847674520354 L 776 218.51387563172952 L 780 219.00485671292154 L 784 219.5304278294637 L 788 220.08932369847852 L 792 220.679940134216 L 796 221.3002773051002 L 800 221.9478950131399 L 804 222.6198824511041 L 808 223.3128442597556 L 812 224.02290399997565 L 816 224.74572540393135 L 820 225.4765510083153 L 824 226.2102570341312 L 828 226.94142269331786 L 832 227.66441150196866 L 836 228.37346168846773 L 840 229.0627824231141 L 844 229.7266523785739 L 848 230.3595170662483 L 852 230.95608148413578 L 856 231.5113948519861 L 860 232.02092458796034 L 864 232.48061718008768 L 868 232.88694420277344 L 872 233.23693239646767 L 876 233.52817743730725 L 880 233.7588417413205 L 884 233.9276373425169 L 888 234.03379552481425 L 892 234.07702544563912 L 896 234.0574644392006 L 900 233.97562300967064 L 904 233.83232770425045 L 908 233.6286650851092 L 912 233.36592989586745 L 916 233.04558024785152 L 920 232.66920224551095 L 924 232.2384859469852 L 928 231.75521393795904 L 932 231.2212631121268 L 936 230.63861953041757 L 940 230.00940550607675 L 944 229.33591736666676 L 948 228.6206717089557 L 952 227.86645741805103 L 956 227.0763902938843 L 960 226.2539668373081 L 964 225.40311360993095 L 968 224.52822860521286 L 972 223.63421125520787 L 976 222.72647804256218 L 980 221.81096117897204 L 984 220.89408843085909 L 988 219.98274289641392 L 992 219.08420233654465 L 996 218.20605850324625 L 1000 217.35611775786055 L 1004 216.54228509323175 L 1008 215.77243443317766 L 1012 215.0542687474514 L 1016 214.39517406145163 L 1020 213.80207183311228 L 1024 213.28127439623557 L 1028 212.8383482182235 L 1032 212.47798958606475 L 1036 212.20391702030426 L 1040 212.01878423265575 L 1044 211.92411680598258 L 1048 211.9202750089494 L 1052 212.00644429051465 L 1056 212.18065406461668 L 1060 212.43982442885084 L 1064 212.77983950006026 L 1068 213.19564513194717 L 1072 213.68136794086718 L 1076 214.23045183869658 L 1080 214.83580768450116 L 1084 215.4899712426166 L 1088 216.18526439014673 L 1092 216.9139544611513 L 1096 217.6684067497704 L 1100 218.44122551448203 L 1104 219.22537931752123 L 1108 220.01430717730884 L 1112 220.80200278163758 L 1116 221.5830748745091 L 1120 222.35278285537626 L 1124 223.10704757932632 L 1128 223.8424382828634 L 1132 224.55613744558963 L 1136 225.2458861986621 L 1140 225.90991357547364 L 1144 226.54685344251328 L 1148 227.15565332866996 L 1152 227.73547957592683 L 1156 228.28562325726043 L 1160 228.80541114985036 L 1164 229.2941257220115 L 1168 229.75093760612057 L 1172 230.1748534090241 L 1176 230.56468098311842 L 1180 230.91901347678885 L 1184 231.23623263633834 L 1188 231.51453097850194 L 1192 231.7519516286357 L 1196 231.94644385865246 L 1200 232.0959316917683 L 1200 240 Z" fill="#285d9c" fill-opacity="1" stroke="none" />
</svg>